PathFileType	4	(X/Y/Z)	/home/abdul/Documents/myosuite/MHH/MHH/IK/original/output/S5_12_1.trc
DataRate	CameraRate	NumFrames	NumMarkers	Units	OrigDataRate	OrigDataStartFrame	OrigNumFrames
200.0	200.0	40	3	mm	200.0	792	1267
Frame#	Time	V_Shoulder			V_Elbow			V_Wrist		
		X1	Y1	Z1	X2	Y2	Z2	X3	Y3	Z3

792	3.955	5.714223734955311	740.7157067316848	264.7043450472184	-142.54199097274574	560.3301998034214	57.39927391629054	-55.23905284363433	334.9201768992841	100.01929138398262
793	3.96	5.647691510974425	740.6365055210778	264.6565974014223	-142.1686441840302	560.0398487777263	57.1638125635906	-55.12029443672355	334.5632473678562	98.99345121083964
794	3.965	5.580416901061921	740.5620100367956	264.6080627375527	-141.79181355055454	559.7542574880488	56.9239272460811	-54.98240965391821	334.22285876496403	97.98936058327351
795	3.97	5.512498450619796	740.4920729418363	264.55880622956425	-141.411842137557	559.4735419651039	56.679918378846324	-54.8261380191598	333.89813405133964	97.0067030135022
796	3.975	5.444035218447277	740.4265383080028	264.5088935522826	-141.0290674052403	559.1977982511155	56.43209191112092	-54.65222996692996	333.58821594213487	96.04515792205059
797	3.98	5.375126552658926	740.3652422952192	264.45839072993414	-140.64382104199177	558.9271033084493	56.18075820196907	-54.46144525745184	333.292268157883	95.1044015142251
798	3.985	5.305871869414365	740.3080138504525	264.4073639867217	-140.2564288061909	558.6615159515974	55.92623093062463	-54.25455139701094	333.0094765756668	94.18410761402323
799	3.99	5.236370434960256	740.2546754233196	264.355879599786	-139.86721037649477	558.4010777976508	55.66882604415821	-54.03232206689469	332.7390502799942	93.28394845330399
800	3.995	5.166721151460526	740.205043695425	264.30400375488244	-139.47647921047917	558.145814230519	55.408860744867866	-53.795535564352235	332.48022251322175	92.40359541434054
801	4.0	5.097022347065947	740.1589303204642	264.2518024050817	-139.08454241150196	557.8957353742858	55.14665251951945	-53.544973258871096	332.2322515256918	91.54271972417044
802	4.005	5.027371570648925	740.116142672109	264.1993411327906	-138.691700603642	557.6508370712488	54.88251821229248	-53.281418066956036	331.99442132606623	90.70099309945297
803	4.01	4.957865391604126	740.0764845967122	264.14668501537045	-138.29824781455184	557.4111018603566	54.61677314301789	-53.00565294847816	331.7660423326438	89.87808834083137
804	4.015	4.888599205090267	740.0397571678718	264.09389849461445	-137.90447136604936	557.1764999519343	54.349730272027436	-52.71845942754058	331.54645192674485	89.07367987608467
805	4.02	4.81966704306328	740.0057594399381	264.0410452503279	-137.5106517722594	556.9469901947913	54.08169941267168	-52.42061614068012	331.3350149095248	88.28744425163254
806	4.025	4.751161391426109	739.9742891975789	263.9881880782389	-137.1170626451049	556.7225210319968	53.81298649230509	-52.112897415095105	331.13112386384773	87.5190605722295
807	4.03	4.683173013595754	739.9451436985754	263.9353887724474	-136.72397060693655	556.5030314418302	53.54389286228512	-51.79607187945612	330.9341994231098	86.7682108889496
808	4.035	4.615790780763894	739.9181204070802	263.8827080126038	-136.33163521008177	556.2884518606284	53.274714657286296	-51.470901109721964	330.74369044914164	86.03458053581873
809	4.04	4.549101509103551	739.8930177146436	263.83020525599153	-135.94030886308974	556.0787050844787	53.0057422039937	-51.1381383122463	330.55907412155227	85.31785841569783
810	4.045	4.4831898041508556	739.8696356463973	263.77793863466826	-135.5502367634451	555.8737071469368	52.73725947901065	-50.798527046323244	330.37985594109114	84.61773723625652
811	4.05	4.418137912568142	739.8477765498756	263.72596485780315	-135.16165683652707	555.6733681701824	52.469543615597	-50.45279998818242	330.20556964980847	83.93391369710213
812	4.055	4.3540255814722215	739.8272457640536	263.6743391193304	-134.77479968059373	555.4775931872601	52.20286445864467	-50.10167773830658	330.0357770709834	83.26608862934305
813	4.06	4.290929925489943	739.8078522662918	263.62311501102	-134.3898885175808	555.2862829332912	51.93748416709965	-49.745867673808284	329.8700678719644	82.61396708906803
814	4.065	4.228925301682031	739.7894092949904	263.57234444105063	-134.00713914951746	555.0993346037765	51.6736568628522	-49.386062847467	329.7080592532291	81.97725840641402
815	4.07	4.168083192455557	739.771734945884	263.5220775581512	-133.62675992037686	554.9166425783465	51.411628324942946	-49.02294093489438	329.54939556711713	81.3556761920738
816	4.075	4.108472096565539	739.7546527400312	263.4723626813599	-133.24895168319935	554.7380991085472	51.15163572776946	-48.65716323116484	329.39374786982273	80.74893830326151
817	4.08	4.050157428286778	739.7379921616949	263.4232462354348	-132.87390777235004	554.5635949684827	50.89390742182881	-48.28937369811997	329.2408134103549	80.15676677130904
818	4.085	3.993201424818342	739.721589164447	263.37477269193045	-132.50181398079678	554.393020067355	50.63866275539473	-47.92019806343032	329.09031506027657	79.57888769320905
819	4.09	3.9376630619649955	739.7052866439735	263.32698451594115	-132.13284854232444	554.2262640231735	50.38611193540478	-47.55024297237656	328.94200068812665	79.01503108955131
820	4.095	3.8835979781223267	739.6889348762134	263.27992211849545	-131.76718211863138	554.0632166971125	50.13645592572317	-47.180095193194035	328.79564248250506	78.46493073141822
821	4.1	3.831058406575439	739.6723919196102	263.2336238145691	-131.4049777912858	553.9037686882132	49.889886380848615	-46.81032087671144	328.6510362278618	77.92832393891274
822	4.105	3.7800931161046627	739.655523980418	263.1881257866721	-131.04639105855324	553.7478117883284	49.646585613053574	-46.441464870904646	328.5080005370827	77.40495135408902
823	4.11	3.7307473598759633	739.6382057401524	263.1434620539494	-130.69156983713904	553.5952393974059	49.40672659087248	-46.07405009088207	328.36637604499595	76.89455669113985
824	4.115	3.6830628325784684	739.6203206444474	263.09966444672136	-130.34065446892353	553.4459468993975	49.170472966800155	-45.708576944717464	328.22602456694324	76.3968864667701
825	4.12	3.63707763575678	739.6017611527313	263.05676258637806	-129.9937777327994	553.2998319992657	48.93797913201928	-45.34552281545057	328.0868282265677	75.91168971374825
826	4.125	3.592826251271562	739.5824289483027	263.0147838705286	-129.6510648617518	553.15679502173	48.709390295945504	-44.98534159948468	327.94868855695915	75.43871768068111
827	4.13	3.550339522808154	739.5622351085402	262.9737534632954	-129.31263356535055	553.0167391725702	48.48484258836192	-44.62846330152368	327.8115255792775	74.97772352109888
828	4.135	3.5096446453397374	739.5411002351499	262.93369429063176	-128.97859405784976	552.8795707634544	48.26446318190938	-44.27529368610867	327.67527686294073	74.52846197496967
829	4.14	3.4707651624388425	739.5189545445033	262.8946270405334	-128.64904909211344	552.7451994014144	48.04837043270566	-43.92621398573597	327.5398965714119	74.090689045785
830	4.145	3.433720971318697	739.495737918281	262.8565701680015	-128.32409399960528	552.6135381442298	47.8366740368847	-43.58158066546389	327.40535449756067	73.66416167636812
831	4.15	3.3985283354740514	739.4713999147888	262.81953990461005	-128.00381673669506	552.4845036231145	47.62947520087583	-43.241725243844485	327.2716350925011	73.24863742655984
